<svg width="490" height="581" viewBox="0 0 490 581" fill="none" xmlns="http://www.w3.org/2000/svg">
<g filter="url(#filter0_dd)">
<rect x="15" y="7" width="460" height="550.703" rx="8" fill="white"/>
</g>
<rect x="45.5" y="417.774" width="399" height="43.0563" rx="5.5" fill="white" stroke="#CBD5E0"/>
<path d="M74 51.9741C74 52.5263 74.4477 52.9741 75 52.9741C75.5523 52.9741 76 52.5263 76 51.9741H74ZM55 63.9881C55.5523 63.9881 56 63.5404 56 62.9881C56 62.4358 55.5523 61.9881 55 61.9881V63.9881ZM59 52.9741H79V50.9741H59V52.9741ZM82 55.6454V66.6595H84V55.6454H82ZM79 69.3308H59V71.3308H79V69.3308ZM56 66.6595V55.6454H54V66.6595H56ZM59 69.3308C57.2607 69.3308 56 68.0558 56 66.6595H54C54 69.3184 56.321 71.3308 59 71.3308V69.3308ZM82 66.6595C82 68.0558 80.7393 69.3308 79 69.3308V71.3308C81.679 71.3308 84 69.3184 84 66.6595H82ZM79 52.9741C80.7393 52.9741 82 54.249 82 55.6454H84C84 52.9865 81.679 50.9741 79 50.9741V52.9741ZM59 50.9741C56.321 50.9741 54 52.9865 54 55.6454H56C56 54.249 57.2607 52.9741 59 52.9741V50.9741ZM51 45.6313H71V43.6313H51V45.6313ZM48 59.3168V48.3027H46V59.3168H48ZM51 61.9881C49.2607 61.9881 48 60.7131 48 59.3168H46C46 61.9757 48.321 63.9881 51 63.9881V61.9881ZM71 45.6313C72.7393 45.6313 74 46.9063 74 48.3027H76C76 45.6438 73.679 43.6313 71 43.6313V45.6313ZM51 43.6313C48.321 43.6313 46 45.6438 46 48.3027H48C48 46.9063 49.2607 45.6313 51 45.6313V43.6313ZM74 48.3027V51.9741H76V48.3027H74ZM55 61.9881H51V63.9881H55V61.9881ZM72 61.1524C72 62.5488 70.7393 63.8238 69 63.8238V65.8238C71.679 65.8238 74 63.8113 74 61.1524H72ZM69 63.8238C67.2607 63.8238 66 62.5488 66 61.1524H64C64 63.8113 66.321 65.8238 69 65.8238V63.8238ZM66 61.1524C66 59.7561 67.2607 58.4811 69 58.4811V56.4811C66.321 56.4811 64 58.4935 64 61.1524H66ZM69 58.4811C70.7393 58.4811 72 59.7561 72 61.1524H74C74 58.4935 71.679 56.4811 69 56.4811V58.4811Z" fill="#F7A200"/>
<path d="M15 487.947H475V549.703C475 554.121 471.418 557.703 467 557.703H23C18.5817 557.703 15 554.121 15 549.703V487.947Z" fill="#F7FAFC"/>
<rect x="45.5" y="122.23" width="399" height="43.0563" rx="5.5" fill="white" stroke="#CBD5E0"/>
<path d="M426 253.899L422 257.57L418 253.899" stroke="#A0AEC0" stroke-width="2" stroke-linecap="round" stroke-linejoin="round"/>
<rect x="348" y="246.556" width="8" height="18.3568" fill="#219653"/>
<path fill-rule="evenodd" clip-rule="evenodd" d="M328 264.913H336V246.556H328V264.913Z" fill="#219653"/>
<path d="M311.5 234.624V233.124H310H51C46.8579 233.124 43.5 236.482 43.5 240.624V272.68C43.5 276.822 46.8579 280.18 51 280.18H310H311.5V278.68V234.624Z" stroke="#F7A200" stroke-opacity="0.15" stroke-width="3"/>
<path d="M46.1186 112.702H47.6548V108.849H49.7429C49.7777 108.849 49.8075 108.849 49.8423 108.849L51.9105 112.702H53.6605L51.4034 108.58C52.6513 108.118 53.2727 107.079 53.2727 105.712C53.2727 103.837 52.1094 102.52 49.7479 102.52H46.1186V112.702ZM47.6548 107.526V103.837H49.5838C51.1001 103.837 51.7266 104.558 51.7266 105.712C51.7266 106.86 51.1001 107.526 49.6037 107.526H47.6548ZM58.3582 112.856C60.0237 112.856 61.202 112.035 61.54 110.793L60.1331 110.539C59.8646 111.26 59.2183 111.628 58.3731 111.628C57.1004 111.628 56.2453 110.803 56.2055 109.331H61.6345V108.804C61.6345 106.045 59.9839 104.966 58.2538 104.966C56.126 104.966 54.724 106.587 54.724 108.933C54.724 111.305 56.1061 112.856 58.3582 112.856ZM56.2105 108.217C56.2701 107.133 57.0557 106.194 58.2638 106.194C59.4172 106.194 60.1728 107.049 60.1778 108.217H56.2105ZM66.6404 112.856C68.4451 112.856 69.6135 111.772 69.7775 110.285H68.3308C68.1419 111.111 67.5005 111.598 66.6504 111.598C65.3926 111.598 64.5822 110.549 64.5822 108.883C64.5822 107.248 65.4075 106.219 66.6504 106.219C67.595 106.219 68.1717 106.815 68.3308 107.531H69.7775C69.6184 105.99 68.3606 104.966 66.6255 104.966C64.4728 104.966 63.0808 106.587 63.0808 108.918C63.0808 111.22 64.4231 112.856 66.6404 112.856ZM71.5072 112.702H72.9937V105.065H71.5072V112.702ZM72.2579 103.887C72.77 103.887 73.1975 103.489 73.1975 103.002C73.1975 102.515 72.77 102.112 72.2579 102.112C71.7408 102.112 71.3183 102.515 71.3183 103.002C71.3183 103.489 71.7408 103.887 72.2579 103.887ZM75.1335 115.565H76.62V111.513H76.7095C76.978 112.001 77.5248 112.851 78.9169 112.851C80.7663 112.851 82.1087 111.369 82.1087 108.898C82.1087 106.423 80.7464 104.966 78.902 104.966C77.4851 104.966 76.973 105.831 76.7095 106.303H76.5852V105.065H75.1335V115.565ZM76.5902 108.883C76.5902 107.288 77.2862 106.229 78.5838 106.229C79.9311 106.229 80.6072 107.367 80.6072 108.883C80.6072 110.415 79.9112 111.583 78.5838 111.583C77.3061 111.583 76.5902 110.489 76.5902 108.883ZM83.9141 112.702H85.4006V105.065H83.9141V112.702ZM84.6648 103.887C85.1769 103.887 85.6045 103.489 85.6045 103.002C85.6045 102.515 85.1769 102.112 84.6648 102.112C84.1478 102.112 83.7252 102.515 83.7252 103.002C83.7252 103.489 84.1478 103.887 84.6648 103.887ZM90.8317 112.856C92.4971 112.856 93.6754 112.035 94.0135 110.793L92.6065 110.539C92.338 111.26 91.6917 111.628 90.8466 111.628C89.5738 111.628 88.7187 110.803 88.679 109.331H94.1079V108.804C94.1079 106.045 92.4574 104.966 90.7273 104.966C88.5994 104.966 87.1974 106.587 87.1974 108.933C87.1974 111.305 88.5795 112.856 90.8317 112.856ZM88.6839 108.217C88.7436 107.133 89.5291 106.194 90.7372 106.194C91.8906 106.194 92.6463 107.049 92.6513 108.217H88.6839ZM97.3838 108.168C97.3838 106.95 98.1295 106.254 99.1636 106.254C100.173 106.254 100.784 106.915 100.784 108.023V112.702H102.271V107.844C102.271 105.955 101.232 104.966 99.6707 104.966C98.5223 104.966 97.7715 105.498 97.4186 106.308H97.3241V105.065H95.8973V112.702H97.3838V108.168ZM107.969 105.065H106.403V103.236H104.917V105.065H103.798V106.258H104.917V110.768C104.912 112.155 105.97 112.826 107.144 112.801C107.616 112.796 107.934 112.707 108.108 112.642L107.84 111.414C107.74 111.434 107.556 111.479 107.318 111.479C106.836 111.479 106.403 111.32 106.403 110.459V106.258H107.969V105.065Z" fill="#1A202C"/>
<path d="M46.1186 226.514H47.6548V222.074H52.7308V226.514H54.272V216.332H52.7308V220.757H47.6548V216.332H46.1186V226.514ZM59.7465 226.668C61.8992 226.668 63.3062 225.092 63.3062 222.73C63.3062 220.354 61.8992 218.778 59.7465 218.778C57.5938 218.778 56.1869 220.354 56.1869 222.73C56.1869 225.092 57.5938 226.668 59.7465 226.668ZM59.7515 225.42C58.3445 225.42 57.6883 224.192 57.6883 222.725C57.6883 221.264 58.3445 220.021 59.7515 220.021C61.1485 220.021 61.8048 221.264 61.8048 222.725C61.8048 224.192 61.1485 225.42 59.7515 225.42ZM66.5286 226.514H68.0399L69.5911 221H69.7054L71.2566 226.514H72.7729L75.0151 218.877H73.4789L71.9924 224.46H71.9178L70.4263 218.877H68.8901L67.3887 224.485H67.3141L65.8176 218.877H64.2814L66.5286 226.514ZM80.4109 226.514H81.8974V221.806C81.8974 220.776 82.6182 220.061 83.4634 220.061C84.2887 220.061 84.8604 220.607 84.8604 221.438V226.514H86.342V221.646C86.342 220.727 86.9038 220.061 87.8732 220.061C88.6587 220.061 89.305 220.498 89.305 221.532V226.514H90.7915V221.393C90.7915 219.648 89.8171 218.778 88.435 218.778C87.3363 218.778 86.511 219.305 86.1431 220.12H86.0636C85.7305 219.285 85.0295 218.778 84.0103 218.778C83.0011 218.778 82.2503 219.28 81.9322 220.12H81.8377V218.877H80.4109V226.514ZM97.7613 223.347C97.7662 224.644 96.8017 225.261 95.9665 225.261C95.0468 225.261 94.4104 224.595 94.4104 223.556V218.877H92.9239V223.735C92.9239 225.629 93.963 226.613 95.4296 226.613C96.578 226.613 97.3586 226.007 97.7115 225.191H97.7911V226.514H99.2527V218.877H97.7613V223.347ZM104.607 226.668C106.411 226.668 107.58 225.584 107.744 224.097H106.297C106.108 224.923 105.467 225.41 104.617 225.41C103.359 225.41 102.548 224.361 102.548 222.695C102.548 221.06 103.374 220.031 104.617 220.031C105.561 220.031 106.138 220.627 106.297 221.343H107.744C107.585 219.802 106.327 218.778 104.592 218.778C102.439 218.778 101.047 220.399 101.047 222.73C101.047 225.032 102.389 226.668 104.607 226.668ZM110.96 221.98C110.96 220.762 111.731 220.066 112.789 220.066C113.814 220.066 114.425 220.717 114.425 221.835V226.514H115.912V221.656C115.912 219.752 114.868 218.778 113.297 218.778C112.108 218.778 111.392 219.295 111.035 220.12H110.94V216.332H109.473V226.514H110.96V221.98ZM124.739 226.663C126.131 226.663 126.678 225.813 126.946 225.325H127.071V226.514H128.522V216.332H127.036V220.115H126.946C126.678 219.643 126.171 218.778 124.749 218.778C122.905 218.778 121.547 220.235 121.547 222.71C121.547 225.181 122.885 226.663 124.739 226.663ZM125.067 225.395C123.74 225.395 123.049 224.227 123.049 222.695C123.049 221.179 123.725 220.041 125.067 220.041C126.365 220.041 127.061 221.1 127.061 222.695C127.061 224.301 126.35 225.395 125.067 225.395ZM134.001 226.668C136.153 226.668 137.56 225.092 137.56 222.73C137.56 220.354 136.153 218.778 134.001 218.778C131.848 218.778 130.441 220.354 130.441 222.73C130.441 225.092 131.848 226.668 134.001 226.668ZM134.006 225.42C132.599 225.42 131.942 224.192 131.942 222.725C131.942 221.264 132.599 220.021 134.006 220.021C135.403 220.021 136.059 221.264 136.059 222.725C136.059 224.192 135.403 225.42 134.006 225.42ZM144.144 229.377C145.372 229.377 146.148 228.736 146.59 227.533L149.747 218.892L148.141 218.877L146.208 224.803H146.128L144.194 218.877H142.603L145.397 226.613L145.213 227.12C144.835 228.134 144.303 228.219 143.488 227.995L143.13 229.213C143.309 229.293 143.697 229.377 144.144 229.377ZM154.231 226.668C156.384 226.668 157.791 225.092 157.791 222.73C157.791 220.354 156.384 218.778 154.231 218.778C152.079 218.778 150.672 220.354 150.672 222.73C150.672 225.092 152.079 226.668 154.231 226.668ZM154.236 225.42C152.829 225.42 152.173 224.192 152.173 222.725C152.173 221.264 152.829 220.021 154.236 220.021C155.633 220.021 156.289 221.264 156.289 222.725C156.289 224.192 155.633 225.42 154.236 225.42ZM164.428 223.347C164.432 224.644 163.468 225.261 162.633 225.261C161.713 225.261 161.077 224.595 161.077 223.556V218.877H159.59V223.735C159.59 225.629 160.629 226.613 162.096 226.613C163.244 226.613 164.025 226.007 164.378 225.191H164.457V226.514H165.919V218.877H164.428V223.347ZM173.557 226.514H175.068L176.619 221H176.734L178.285 226.514H179.801L182.043 218.877H180.507L179.021 224.46H178.946L177.455 218.877H175.918L174.417 224.485H174.342L172.846 218.877H171.31L173.557 226.514ZM185.816 226.683C187.079 226.683 187.79 226.041 188.074 225.47H188.133V226.514H189.585V221.443C189.585 219.22 187.835 218.778 186.622 218.778C185.24 218.778 183.967 219.335 183.47 220.727L184.867 221.045C185.086 220.503 185.642 219.981 186.642 219.981C187.601 219.981 188.093 220.483 188.093 221.348V221.383C188.093 221.925 187.537 221.915 186.164 222.074C184.718 222.243 183.236 222.621 183.236 224.356C183.236 225.857 184.365 226.683 185.816 226.683ZM186.14 225.49C185.299 225.49 184.693 225.112 184.693 224.376C184.693 223.58 185.399 223.297 186.259 223.183C186.741 223.118 187.885 222.989 188.098 222.775V223.759C188.098 224.664 187.378 225.49 186.14 225.49ZM193.191 221.98C193.191 220.762 193.937 220.066 194.971 220.066C195.98 220.066 196.592 220.727 196.592 221.835V226.514H198.078V221.656C198.078 219.767 197.039 218.778 195.478 218.778C194.33 218.778 193.579 219.31 193.226 220.12H193.132V218.877H191.705V226.514H193.191V221.98ZM203.777 218.877H202.211V217.048H200.724V218.877H199.605V220.07H200.724V224.58C200.719 225.967 201.778 226.638 202.951 226.613C203.424 226.608 203.742 226.519 203.916 226.454L203.647 225.226C203.548 225.246 203.364 225.291 203.125 225.291C202.643 225.291 202.211 225.132 202.211 224.271V220.07H203.777V218.877ZM212.971 218.877H211.405V217.048H209.918V218.877H208.8V220.07H209.918V224.58C209.913 225.967 210.972 226.638 212.145 226.613C212.618 226.608 212.936 226.519 213.11 226.454L212.841 225.226C212.742 225.246 212.558 225.291 212.319 225.291C211.837 225.291 211.405 225.132 211.405 224.271V220.07H212.971V218.877ZM217.89 226.668C220.042 226.668 221.449 225.092 221.449 222.73C221.449 220.354 220.042 218.778 217.89 218.778C215.737 218.778 214.33 220.354 214.33 222.73C214.33 225.092 215.737 226.668 217.89 226.668ZM217.895 225.42C216.488 225.42 215.831 224.192 215.831 222.725C215.831 221.264 216.488 220.021 217.895 220.021C219.292 220.021 219.948 221.264 219.948 222.725C219.948 224.192 219.292 225.42 217.895 225.42ZM232.816 220.742C232.508 219.553 231.578 218.778 229.927 218.778C228.202 218.778 226.979 219.688 226.979 221.04C226.979 222.124 227.636 222.845 229.067 223.163L230.36 223.446C231.096 223.61 231.439 223.938 231.439 224.416C231.439 225.007 230.807 225.47 229.833 225.47C228.943 225.47 228.371 225.087 228.192 224.336L226.756 224.555C227.004 225.907 228.128 226.668 229.843 226.668C231.687 226.668 232.965 225.688 232.965 224.306C232.965 223.227 232.279 222.561 230.877 222.238L229.664 221.96C228.824 221.761 228.461 221.477 228.466 220.96C228.461 220.374 229.097 219.956 229.942 219.956C230.867 219.956 231.295 220.468 231.469 220.98L232.816 220.742ZM238.031 226.668C239.696 226.668 240.874 225.847 241.213 224.605L239.806 224.351C239.537 225.072 238.891 225.44 238.046 225.44C236.773 225.44 235.918 224.615 235.878 223.143H241.307V222.616C241.307 219.857 239.656 218.778 237.926 218.778C235.798 218.778 234.396 220.399 234.396 222.745C234.396 225.117 235.779 226.668 238.031 226.668ZM235.883 222.029C235.943 220.945 236.728 220.006 237.936 220.006C239.09 220.006 239.845 220.861 239.85 222.029H235.883ZM244.583 221.98C244.583 220.762 245.329 220.066 246.363 220.066C247.372 220.066 247.983 220.727 247.983 221.835V226.514H249.47V221.656C249.47 219.767 248.431 218.778 246.87 218.778C245.721 218.778 244.971 219.31 244.618 220.12H244.523V218.877H243.096V226.514H244.583V221.98ZM254.462 226.663C255.854 226.663 256.401 225.813 256.67 225.325H256.794V226.514H258.246V216.332H256.759V220.115H256.67C256.401 219.643 255.894 218.778 254.472 218.778C252.628 218.778 251.27 220.235 251.27 222.71C251.27 225.181 252.608 226.663 254.462 226.663ZM254.79 225.395C253.463 225.395 252.772 224.227 252.772 222.695C252.772 221.179 253.448 220.041 254.79 220.041C256.088 220.041 256.784 221.1 256.784 222.695C256.784 224.301 256.073 225.395 254.79 225.395Z" fill="#1A202C"/>
<path d="M383.337 251.21H381.815V258.687H381.721L376.54 251.21H375.119V261.391H376.655V253.924H376.749L381.925 261.391H383.337V251.21ZM387.114 251.21H385.578V261.391H387.114V251.21ZM396.242 254.426H397.818C397.475 252.443 395.779 251.07 393.582 251.07C390.947 251.07 389.023 253.054 389.023 256.306C389.023 259.527 390.892 261.531 393.651 261.531C396.122 261.531 397.887 259.91 397.887 257.34V256.181H393.885V257.449H396.401C396.366 259.09 395.282 260.129 393.651 260.129C391.857 260.129 390.549 258.771 390.549 256.296C390.549 253.83 391.867 252.472 393.592 252.472C394.944 252.472 395.859 253.218 396.242 254.426Z" fill="#1A202C"/>
<rect x="45.5" y="301.208" width="399" height="73.3449" rx="5.5" fill="white" stroke="#E2E8F0"/>
<path d="M309.5 416.856H439C442.038 416.856 444.5 419.318 444.5 422.356V454.412C444.5 457.45 442.038 459.912 439 459.912H309.5V416.856Z" fill="#F7FAFC" stroke="#CBD5E0"/>
<path d="M381.666 433.86V440.432C381.666 441.814 380.712 442.808 379.161 442.808C377.614 442.808 376.655 441.814 376.655 440.432V433.86H375.119V440.556C375.119 442.694 376.719 444.21 379.161 444.21C381.602 444.21 383.207 442.694 383.207 440.556V433.86H381.666ZM390.994 436.534H392.476C392.431 434.904 390.989 433.72 388.921 433.72C386.878 433.72 385.312 434.889 385.312 436.644C385.312 438.061 386.326 438.891 387.961 439.333L389.165 439.661C390.253 439.95 391.094 440.308 391.094 441.213C391.094 442.207 390.144 442.863 388.836 442.863C387.653 442.863 386.669 442.336 386.579 441.227H385.038C385.138 443.072 386.564 444.21 388.846 444.21C391.238 444.21 392.615 442.953 392.615 441.227C392.615 439.393 390.979 438.682 389.687 438.364L388.692 438.105C387.897 437.901 386.838 437.529 386.843 436.554C386.843 435.689 387.633 435.048 388.886 435.048C390.055 435.048 390.885 435.595 390.994 436.534ZM397.747 444.041C400.849 444.041 402.644 442.117 402.644 438.936C402.644 435.769 400.849 433.86 397.851 433.86H394.451V444.041H397.747ZM395.987 442.699V435.202H397.757C399.984 435.202 401.132 436.534 401.132 438.936C401.132 441.347 399.984 442.699 397.662 442.699H395.987Z" fill="#1A202C"/>
<rect x="328" y="428.288" width="12" height="8.56649" fill="#46467F"/>
<path d="M375.719 521.736C375.406 519.474 373.666 518.162 371.409 518.162C368.749 518.162 366.746 520.1 366.746 523.392C366.746 526.678 368.724 528.622 371.409 528.622C373.83 528.622 375.436 527.056 375.719 525.112L373.86 525.102C373.626 526.295 372.652 526.966 371.434 526.966C369.783 526.966 368.6 525.728 368.6 523.392C368.6 521.095 369.773 519.817 371.439 519.817C372.677 519.817 373.646 520.518 373.86 521.736H375.719ZM380.66 528.632C382.897 528.632 384.319 527.056 384.319 524.694C384.319 522.328 382.897 520.747 380.66 520.747C378.423 520.747 377.001 522.328 377.001 524.694C377.001 527.056 378.423 528.632 380.66 528.632ZM380.67 527.19C379.432 527.19 378.825 526.086 378.825 524.689C378.825 523.292 379.432 522.174 380.67 522.174C381.888 522.174 382.494 523.292 382.494 524.689C382.494 526.086 381.888 527.19 380.67 527.19ZM387.646 524.008C387.646 522.904 388.312 522.268 389.262 522.268C390.192 522.268 390.749 522.88 390.749 523.899V528.483H392.548V523.62C392.553 521.791 391.509 520.747 389.933 520.747C388.79 520.747 388.004 521.294 387.656 522.144H387.567V520.846H385.847V528.483H387.646V524.008ZM398.191 520.846H396.685V519.017H394.885V520.846H393.801V522.238H394.885V526.484C394.875 527.921 395.919 528.627 397.271 528.587C397.783 528.572 398.136 528.473 398.33 528.408L398.027 527.001C397.928 527.026 397.724 527.071 397.5 527.071C397.048 527.071 396.685 526.912 396.685 526.186V522.238H398.191V520.846ZM399.696 528.483H401.496V520.846H399.696V528.483ZM400.601 519.762C401.173 519.762 401.64 519.325 401.64 518.788C401.64 518.246 401.173 517.809 400.601 517.809C400.024 517.809 399.557 518.246 399.557 518.788C399.557 519.325 400.024 519.762 400.601 519.762ZM405.146 524.008C405.146 522.904 405.812 522.268 406.762 522.268C407.692 522.268 408.249 522.88 408.249 523.899V528.483H410.048V523.62C410.053 521.791 409.009 520.747 407.433 520.747C406.29 520.747 405.504 521.294 405.156 522.144H405.067V520.846H403.347V528.483H405.146V524.008ZM416.745 525.271C416.745 526.434 415.915 527.011 415.119 527.011C414.254 527.011 413.678 526.399 413.678 525.43V520.846H411.878V525.708C411.878 527.543 412.922 528.582 414.423 528.582C415.567 528.582 416.372 527.98 416.72 527.125H416.8V528.483H418.545V520.846H416.745V525.271ZM423.776 528.632C425.556 528.632 426.779 527.762 427.097 526.434L425.417 526.245C425.173 526.892 424.577 527.23 423.801 527.23C422.638 527.23 421.867 526.464 421.852 525.157H427.172V524.605C427.172 521.925 425.561 520.747 423.682 520.747C421.494 520.747 420.067 522.353 420.067 524.709C420.067 527.105 421.474 528.632 423.776 528.632ZM421.857 523.943C421.912 522.969 422.633 522.149 423.706 522.149C424.741 522.149 425.437 522.904 425.447 523.943H421.857Z" fill="#807562"/>
<path d="M46.1186 408.246H47.6548V404.393H49.7429C49.7777 404.393 49.8075 404.393 49.8423 404.393L51.9105 408.246H53.6605L51.4034 404.124C52.6513 403.662 53.2727 402.623 53.2727 401.256C53.2727 399.381 52.1094 398.064 49.7479 398.064H46.1186V408.246ZM47.6548 403.07V399.381H49.5838C51.1001 399.381 51.7266 400.102 51.7266 401.256C51.7266 402.404 51.1001 403.07 49.6037 403.07H47.6548ZM58.3582 408.4C60.0237 408.4 61.202 407.58 61.54 406.337L60.1331 406.083C59.8646 406.804 59.2183 407.172 58.3731 407.172C57.1004 407.172 56.2453 406.347 56.2055 404.875H61.6345V404.348C61.6345 401.589 59.9839 400.51 58.2538 400.51C56.126 400.51 54.724 402.131 54.724 404.477C54.724 406.849 56.1061 408.4 58.3582 408.4ZM56.2105 403.761C56.2701 402.678 57.0557 401.738 58.2638 401.738C59.4172 401.738 60.1728 402.593 60.1778 403.761H56.2105ZM66.6404 408.4C68.4451 408.4 69.6135 407.316 69.7775 405.83H68.3308C68.1419 406.655 67.5005 407.142 66.6504 407.142C65.3926 407.142 64.5822 406.093 64.5822 404.428C64.5822 402.792 65.4075 401.763 66.6504 401.763C67.595 401.763 68.1717 402.359 68.3308 403.075H69.7775C69.6184 401.534 68.3606 400.51 66.6255 400.51C64.4728 400.51 63.0808 402.131 63.0808 404.462C63.0808 406.764 64.4231 408.4 66.6404 408.4ZM71.5072 408.246H72.9937V400.609H71.5072V408.246ZM72.2579 399.431C72.77 399.431 73.1975 399.033 73.1975 398.546C73.1975 398.059 72.77 397.656 72.2579 397.656C71.7408 397.656 71.3183 398.059 71.3183 398.546C71.3183 399.033 71.7408 399.431 72.2579 399.431ZM75.1335 411.109H76.62V407.058H76.7095C76.978 407.545 77.5248 408.395 78.9169 408.395C80.7663 408.395 82.1087 406.913 82.1087 404.442C82.1087 401.967 80.7464 400.51 78.902 400.51C77.4851 400.51 76.973 401.375 76.7095 401.847H76.5852V400.609H75.1335V411.109ZM76.5902 404.428C76.5902 402.832 77.2862 401.773 78.5838 401.773C79.9311 401.773 80.6072 402.911 80.6072 404.428C80.6072 405.959 79.9112 407.127 78.5838 407.127C77.3061 407.127 76.5902 406.033 76.5902 404.428ZM83.9141 408.246H85.4006V400.609H83.9141V408.246ZM84.6648 399.431C85.1769 399.431 85.6045 399.033 85.6045 398.546C85.6045 398.059 85.1769 397.656 84.6648 397.656C84.1478 397.656 83.7252 398.059 83.7252 398.546C83.7252 399.033 84.1478 399.431 84.6648 399.431ZM90.8317 408.4C92.4971 408.4 93.6754 407.58 94.0135 406.337L92.6065 406.083C92.338 406.804 91.6917 407.172 90.8466 407.172C89.5738 407.172 88.7187 406.347 88.679 404.875H94.1079V404.348C94.1079 401.589 92.4574 400.51 90.7273 400.51C88.5994 400.51 87.1974 402.131 87.1974 404.477C87.1974 406.849 88.5795 408.4 90.8317 408.4ZM88.6839 403.761C88.7436 402.678 89.5291 401.738 90.7372 401.738C91.8906 401.738 92.6463 402.593 92.6513 403.761H88.6839ZM97.3838 403.712C97.3838 402.494 98.1295 401.798 99.1636 401.798C100.173 401.798 100.784 402.459 100.784 403.567V408.246H102.271V403.388C102.271 401.499 101.232 400.51 99.6707 400.51C98.5223 400.51 97.7715 401.042 97.4186 401.852H97.3241V400.609H95.8973V408.246H97.3838V403.712ZM107.969 400.609H106.403V398.78H104.917V400.609H103.798V401.803H104.917V406.312C104.912 407.699 105.97 408.37 107.144 408.345C107.616 408.34 107.934 408.251 108.108 408.186L107.84 406.958C107.74 406.978 107.556 407.023 107.318 407.023C106.836 407.023 106.403 406.864 106.403 406.004V401.803H107.969V400.609ZM116.8 411.268C118.744 411.268 120.246 410.379 120.246 408.415V400.609H118.789V401.847H118.679C118.416 401.375 117.889 400.51 116.467 400.51C114.623 400.51 113.265 401.967 113.265 404.398C113.265 406.834 114.652 408.131 116.457 408.131C117.859 408.131 118.401 407.341 118.67 406.854H118.764V408.355C118.764 409.553 117.944 410.07 116.815 410.07C115.577 410.07 115.095 409.449 114.831 409.011L113.554 409.538C113.956 410.473 114.976 411.268 116.8 411.268ZM116.785 406.898C115.458 406.898 114.767 405.879 114.767 404.378C114.767 402.911 115.443 401.773 116.785 401.773C118.083 401.773 118.779 402.832 118.779 404.378C118.779 405.954 118.068 406.898 116.785 406.898ZM125.67 408.4C127.336 408.4 128.514 407.58 128.852 406.337L127.445 406.083C127.177 406.804 126.53 407.172 125.685 407.172C124.413 407.172 123.557 406.347 123.518 404.875H128.947V404.348C128.947 401.589 127.296 400.51 125.566 400.51C123.438 400.51 122.036 402.131 122.036 404.477C122.036 406.849 123.418 408.4 125.67 408.4ZM123.523 403.761C123.582 402.678 124.368 401.738 125.576 401.738C126.729 401.738 127.485 402.593 127.49 403.761H123.523ZM134.301 400.609H132.735V398.78H131.248V400.609H130.129V401.803H131.248V406.312C131.243 407.699 132.302 408.37 133.475 408.345C133.948 408.34 134.266 408.251 134.44 408.186L134.171 406.958C134.072 406.978 133.888 407.023 133.649 407.023C133.167 407.023 132.735 406.864 132.735 406.004V401.803H134.301V400.609ZM141.684 402.474C141.376 401.286 140.446 400.51 138.796 400.51C137.071 400.51 135.848 401.42 135.848 402.772C135.848 403.856 136.504 404.577 137.936 404.895L139.228 405.178C139.964 405.342 140.307 405.67 140.307 406.148C140.307 406.739 139.676 407.202 138.701 407.202C137.811 407.202 137.24 406.819 137.061 406.068L135.624 406.287C135.872 407.639 136.996 408.4 138.711 408.4C140.556 408.4 141.833 407.42 141.833 406.038C141.833 404.96 141.147 404.293 139.745 403.97L138.532 403.692C137.692 403.493 137.329 403.21 137.334 402.692C137.329 402.106 137.965 401.688 138.811 401.688C139.735 401.688 140.163 402.2 140.337 402.712L141.684 402.474Z" fill="#1A202C"/>
<path d="M263.719 521.736C263.406 519.474 261.666 518.162 259.409 518.162C256.749 518.162 254.746 520.1 254.746 523.392C254.746 526.678 256.724 528.622 259.409 528.622C261.83 528.622 263.436 527.056 263.719 525.112L261.86 525.102C261.626 526.295 260.652 526.966 259.434 526.966C257.783 526.966 256.6 525.728 256.6 523.392C256.6 521.095 257.773 519.817 259.439 519.817C260.677 519.817 261.646 520.518 261.86 521.736H263.719ZM267.526 528.637C268.725 528.637 269.441 528.075 269.769 527.434H269.828V528.483H271.558V523.372C271.558 521.353 269.913 520.747 268.456 520.747C266.85 520.747 265.617 521.463 265.22 522.855L266.9 523.093C267.079 522.571 267.586 522.124 268.466 522.124C269.301 522.124 269.759 522.551 269.759 523.302V523.332C269.759 523.849 269.217 523.874 267.869 524.018C266.388 524.177 264.971 524.62 264.971 526.34C264.971 527.841 266.07 528.637 267.526 528.637ZM267.994 527.314C267.243 527.314 266.706 526.971 266.706 526.31C266.706 525.619 267.308 525.331 268.113 525.216C268.585 525.152 269.53 525.032 269.764 524.843V525.743C269.764 526.593 269.078 527.314 267.994 527.314ZM275.168 524.008C275.168 522.904 275.834 522.268 276.784 522.268C277.713 522.268 278.27 522.88 278.27 523.899V528.483H280.07V523.62C280.075 521.791 279.031 520.747 277.455 520.747C276.311 520.747 275.526 521.294 275.178 522.144H275.088V520.846H273.368V528.483H275.168V524.008ZM285.23 528.632C287.149 528.632 288.372 527.493 288.502 525.872H286.781C286.627 526.693 286.036 527.165 285.245 527.165C284.122 527.165 283.396 526.225 283.396 524.664C283.396 523.123 284.137 522.198 285.245 522.198C286.11 522.198 286.642 522.755 286.781 523.491H288.502C288.377 521.836 287.085 520.747 285.22 520.747C282.983 520.747 281.571 522.363 281.571 524.694C281.571 527.006 282.948 528.632 285.23 528.632ZM293.36 528.632C295.14 528.632 296.363 527.762 296.681 526.434L295.001 526.245C294.757 526.892 294.161 527.23 293.385 527.23C292.222 527.23 291.451 526.464 291.436 525.157H296.756V524.605C296.756 521.925 295.145 520.747 293.266 520.747C291.078 520.747 289.651 522.353 289.651 524.709C289.651 527.105 291.058 528.632 293.36 528.632ZM291.441 523.943C291.496 522.969 292.217 522.149 293.29 522.149C294.325 522.149 295.021 522.904 295.031 523.943H291.441ZM300.078 518.301H298.278V528.483H300.078V518.301Z" fill="#807562"/>
<path d="M426 436.548L422 440.22L418 436.548" stroke="#A0AEC0" stroke-width="2" stroke-linecap="round" stroke-linejoin="round"/>
<path d="M327.676 316.552H330.878V325.64H332.111V316.552H335.312V315.458H327.676V316.552ZM339.051 325.799C341.119 325.799 342.511 324.228 342.511 321.862C342.511 319.475 341.119 317.904 339.051 317.904C336.983 317.904 335.591 319.475 335.591 321.862C335.591 324.228 336.983 325.799 339.051 325.799ZM339.051 324.745C337.48 324.745 336.764 323.393 336.764 321.862C336.764 320.331 337.48 318.958 339.051 318.958C340.622 318.958 341.338 320.331 341.338 321.862C341.338 323.393 340.622 324.745 339.051 324.745ZM347.623 318.004H345.993V316.174H344.819V318.004H343.666V318.998H344.819V323.771C344.819 325.103 345.893 325.74 346.888 325.74C347.325 325.74 347.604 325.66 347.763 325.6L347.524 324.547C347.425 324.566 347.265 324.606 347.007 324.606C346.49 324.606 345.993 324.447 345.993 323.453V318.998H347.623V318.004ZM351.635 325.819C352.968 325.819 353.664 325.103 353.903 324.606H353.962V325.64H355.135V320.609C355.135 318.183 353.286 317.904 352.312 317.904C351.158 317.904 349.846 318.302 349.249 319.694L350.363 320.092C350.621 319.535 351.233 318.939 352.351 318.939C353.43 318.939 353.962 319.51 353.962 320.49V320.529C353.962 321.096 353.385 321.047 351.993 321.225C350.577 321.409 349.03 321.723 349.03 323.473C349.03 324.964 350.184 325.819 351.635 325.819ZM351.814 324.765C350.88 324.765 350.204 324.348 350.204 323.532C350.204 322.637 351.019 322.359 351.934 322.24C352.431 322.18 353.763 322.041 353.962 321.802V322.876C353.962 323.831 353.206 324.765 351.814 324.765ZM358.45 315.458H357.277V325.64H358.45V315.458ZM364.696 325.64H365.929V321.086H370.344V319.993H365.929V316.552H370.801V315.458H364.696V325.64ZM375.395 325.799C376.946 325.799 378.079 325.024 378.437 323.87L377.304 323.552C377.006 324.348 376.314 324.745 375.395 324.745C374.018 324.745 373.068 323.855 373.013 322.22H378.557V321.723C378.557 318.879 376.866 317.904 375.275 317.904C373.207 317.904 371.835 319.535 371.835 321.882C371.835 324.228 373.187 325.799 375.395 325.799ZM373.013 321.206C373.093 320.017 373.933 318.958 375.275 318.958C376.548 318.958 377.363 319.913 377.363 321.206H373.013ZM383.543 325.799C385.094 325.799 386.228 325.024 386.586 323.87L385.452 323.552C385.154 324.348 384.463 324.745 383.543 324.745C382.166 324.745 381.216 323.855 381.162 322.22H386.705V321.723C386.705 318.879 385.015 317.904 383.424 317.904C381.356 317.904 379.983 319.535 379.983 321.882C379.983 324.228 381.336 325.799 383.543 325.799ZM381.162 321.206C381.241 320.017 382.081 318.958 383.424 318.958C384.697 318.958 385.512 319.913 385.512 321.206H381.162ZM393.899 319.714C393.531 318.63 392.706 317.904 391.194 317.904C389.584 317.904 388.39 318.819 388.39 320.112C388.39 321.166 389.017 321.872 390.419 322.2L391.692 322.498C392.462 322.677 392.825 323.045 392.825 323.572C392.825 324.228 392.129 324.765 391.035 324.765C390.076 324.765 389.474 324.353 389.265 323.532L388.152 323.811C388.425 325.108 389.494 325.799 391.055 325.799C392.83 325.799 394.038 324.83 394.038 323.512C394.038 322.448 393.372 321.777 392.01 321.444L390.876 321.166C389.971 320.942 389.564 320.639 389.564 320.052C389.564 319.396 390.26 318.919 391.194 318.919C392.219 318.919 392.641 319.485 392.845 320.012L393.899 319.714Z" fill="#64748B"/>
<path d="M64.2955 251.755H62.8864L59.9773 253.687V255.119L62.8182 253.232H62.8864V263.391H64.2955V251.755ZM72.3466 263.391H76.5511C79.3011 263.391 80.4375 262.051 80.4375 260.301C80.4375 258.46 79.1648 257.46 78.0966 257.391V257.278C79.0966 257.005 79.983 256.346 79.983 254.846C79.983 253.141 78.8466 251.755 76.4148 251.755H72.3466V263.391ZM73.7557 262.141V258.096H76.6193C78.142 258.096 79.0966 259.119 79.0966 260.301C79.0966 261.323 78.392 262.141 76.5511 262.141H73.7557ZM73.7557 256.869V253.005H76.4148C77.9602 253.005 78.642 253.823 78.642 254.846C78.642 256.073 77.642 256.869 76.3693 256.869H73.7557ZM82.571 263.391H83.9119V254.664H82.571V263.391ZM83.2528 253.21C83.7756 253.21 84.2074 252.801 84.2074 252.301C84.2074 251.801 83.7756 251.391 83.2528 251.391C82.7301 251.391 82.2983 251.801 82.2983 252.301C82.2983 252.801 82.7301 253.21 83.2528 253.21ZM90.1634 254.664H88.2997V252.573H86.9588V254.664H85.6406V255.801H86.9588V261.255C86.9588 262.778 88.1861 263.505 89.3224 263.505C89.8224 263.505 90.1406 263.414 90.3224 263.346L90.0497 262.141C89.9361 262.164 89.7543 262.21 89.4588 262.21C88.8679 262.21 88.2997 262.028 88.2997 260.891V255.801H90.1634V254.664ZM95.6321 263.573C97.5639 263.573 98.8366 262.391 99.0639 260.846H97.723C97.473 261.801 96.6776 262.369 95.6321 262.369C94.0412 262.369 93.0185 261.051 93.0185 259.028C93.0185 257.051 94.0639 255.755 95.6321 255.755C96.8139 255.755 97.5185 256.482 97.723 257.278H99.0639C98.8366 255.641 97.4503 254.551 95.6094 254.551C93.2457 254.551 91.6776 256.414 91.6776 259.073C91.6776 261.687 93.1776 263.573 95.6321 263.573ZM104.57 263.573C106.933 263.573 108.524 261.778 108.524 259.073C108.524 256.346 106.933 254.551 104.57 254.551C102.206 254.551 100.615 256.346 100.615 259.073C100.615 261.778 102.206 263.573 104.57 263.573ZM104.57 262.369C102.774 262.369 101.956 260.823 101.956 259.073C101.956 257.323 102.774 255.755 104.57 255.755C106.365 255.755 107.183 257.323 107.183 259.073C107.183 260.823 106.365 262.369 104.57 262.369ZM110.571 263.391H111.912V254.664H110.571V263.391ZM111.253 253.21C111.776 253.21 112.207 252.801 112.207 252.301C112.207 251.801 111.776 251.391 111.253 251.391C110.73 251.391 110.298 251.801 110.298 252.301C110.298 252.801 110.73 253.21 111.253 253.21ZM115.709 258.141C115.709 256.619 116.652 255.755 117.936 255.755C119.18 255.755 119.936 256.568 119.936 257.937V263.391H121.277V257.846C121.277 255.619 120.089 254.551 118.322 254.551C117.004 254.551 116.186 255.141 115.777 256.028H115.663V254.664H114.368V263.391H115.709V258.141Z" fill="#1A202C"/>
<path d="M61.8182 138.861H60.4091V150.497H61.8182V138.861ZM68.2571 141.77H66.3935V139.679H65.0526V141.77H63.7344V142.906H65.0526V148.361C65.0526 149.884 66.2798 150.611 67.4162 150.611C67.9162 150.611 68.2344 150.52 68.4162 150.452L68.1435 149.247C68.0298 149.27 67.848 149.315 67.5526 149.315C66.9616 149.315 66.3935 149.134 66.3935 147.997V142.906H68.2571V141.77ZM75.7741 146.929C75.7741 148.565 74.5241 149.315 73.5241 149.315C72.4105 149.315 71.6151 148.497 71.6151 147.225V141.77H70.2741V147.315C70.2741 149.543 71.456 150.611 73.0923 150.611C74.4105 150.611 75.2741 149.906 75.6832 149.02H75.7741V150.497H77.1151V141.77H75.7741V146.929ZM80.9119 145.247C80.9119 143.725 81.8551 142.861 83.1392 142.861C84.3835 142.861 85.1392 143.673 85.1392 145.043V150.497H86.4801V144.952C86.4801 142.725 85.2926 141.656 83.5256 141.656C82.2074 141.656 81.3892 142.247 80.9801 143.134H80.8665V141.77H79.571V150.497H80.9119V145.247ZM94.4304 146.929C94.4304 148.565 93.1804 149.315 92.1804 149.315C91.0668 149.315 90.2713 148.497 90.2713 147.225V141.77H88.9304V147.315C88.9304 149.543 90.1122 150.611 91.7486 150.611C93.0668 150.611 93.9304 149.906 94.3395 149.02H94.4304V150.497H95.7713V141.77H94.4304V146.929ZM106.5 150.497C110.045 150.497 112.045 148.293 112.045 144.656C112.045 141.043 110.045 138.861 106.659 138.861H102.909V150.497H106.5ZM104.318 149.247V140.111H106.568C109.295 140.111 110.682 141.838 110.682 144.656C110.682 147.497 109.295 149.247 106.409 149.247H104.318ZM117.886 150.679C119.659 150.679 120.955 149.793 121.364 148.475L120.068 148.111C119.727 149.02 118.938 149.475 117.886 149.475C116.312 149.475 115.227 148.458 115.165 146.588H121.5V146.02C121.5 142.77 119.568 141.656 117.75 141.656C115.386 141.656 113.818 143.52 113.818 146.202C113.818 148.884 115.364 150.679 117.886 150.679ZM115.165 145.429C115.256 144.071 116.216 142.861 117.75 142.861C119.205 142.861 120.136 143.952 120.136 145.429H115.165ZM129.722 143.725C129.301 142.486 128.358 141.656 126.631 141.656C124.79 141.656 123.426 142.702 123.426 144.179C123.426 145.384 124.142 146.19 125.744 146.565L127.199 146.906C128.08 147.111 128.494 147.531 128.494 148.134C128.494 148.884 127.699 149.497 126.449 149.497C125.352 149.497 124.665 149.026 124.426 148.088L123.153 148.406C123.466 149.889 124.688 150.679 126.472 150.679C128.5 150.679 129.881 149.571 129.881 148.065C129.881 146.85 129.119 146.083 127.562 145.702L126.267 145.384C125.233 145.128 124.767 144.781 124.767 144.111C124.767 143.361 125.562 142.815 126.631 142.815C127.801 142.815 128.284 143.463 128.517 144.065L129.722 143.725ZM131.899 150.497H133.24V141.77H131.899V150.497ZM132.581 140.315C133.104 140.315 133.536 139.906 133.536 139.406C133.536 138.906 133.104 138.497 132.581 138.497C132.058 138.497 131.626 138.906 131.626 139.406C131.626 139.906 132.058 140.315 132.581 140.315ZM139.219 153.952C141.31 153.952 142.991 152.997 142.991 150.747V141.77H141.696V143.156H141.56C141.264 142.702 140.719 141.656 139.014 141.656C136.81 141.656 135.287 143.406 135.287 146.088C135.287 148.815 136.878 150.361 138.991 150.361C140.696 150.361 141.241 149.361 141.537 148.884H141.651V150.656C141.651 152.111 140.628 152.77 139.219 152.77C137.634 152.77 137.077 151.935 136.719 151.452L135.651 152.202C136.196 153.117 137.27 153.952 139.219 153.952ZM139.173 149.156C137.491 149.156 136.628 147.884 136.628 146.065C136.628 144.293 137.469 142.861 139.173 142.861C140.81 142.861 141.673 144.179 141.673 146.065C141.673 147.997 140.787 149.156 139.173 149.156ZM146.787 145.247C146.787 143.725 147.73 142.861 149.014 142.861C150.259 142.861 151.014 143.673 151.014 145.043V150.497H152.355V144.952C152.355 142.725 151.168 141.656 149.401 141.656C148.082 141.656 147.264 142.247 146.855 143.134H146.741V141.77H145.446V150.497H146.787V145.247ZM158.464 150.679C160.237 150.679 161.533 149.793 161.942 148.475L160.646 148.111C160.305 149.02 159.516 149.475 158.464 149.475C156.891 149.475 155.805 148.458 155.743 146.588H162.078V146.02C162.078 142.77 160.146 141.656 158.328 141.656C155.964 141.656 154.396 143.52 154.396 146.202C154.396 148.884 155.942 150.679 158.464 150.679ZM155.743 145.429C155.834 144.071 156.794 142.861 158.328 142.861C159.783 142.861 160.714 143.952 160.714 145.429H155.743ZM164.118 150.497H165.459V144.975C165.459 143.793 166.391 142.929 167.663 142.929C168.021 142.929 168.391 142.997 168.482 143.02V141.656C168.328 141.645 167.976 141.634 167.777 141.634C166.732 141.634 165.822 142.225 165.504 143.088H165.413V141.77H164.118V150.497Z" fill="#1A202C"/>
<path d="M64.2955 433.487H62.8864L59.9773 435.419V436.851L62.8182 434.964H62.8864V445.124H64.2955V433.487ZM72.3466 445.124H76.5511C79.3011 445.124 80.4375 443.783 80.4375 442.033C80.4375 440.192 79.1648 439.192 78.0966 439.124V439.01C79.0966 438.737 79.983 438.078 79.983 436.578C79.983 434.874 78.8466 433.487 76.4148 433.487H72.3466V445.124ZM73.7557 443.874V439.828H76.6193C78.142 439.828 79.0966 440.851 79.0966 442.033C79.0966 443.055 78.392 443.874 76.5511 443.874H73.7557ZM73.7557 438.601V434.737H76.4148C77.9602 434.737 78.642 435.555 78.642 436.578C78.642 437.805 77.642 438.601 76.3693 438.601H73.7557ZM82.571 445.124H83.9119V436.396H82.571V445.124ZM83.2528 434.942C83.7756 434.942 84.2074 434.533 84.2074 434.033C84.2074 433.533 83.7756 433.124 83.2528 433.124C82.7301 433.124 82.2983 433.533 82.2983 434.033C82.2983 434.533 82.7301 434.942 83.2528 434.942ZM90.1634 436.396H88.2997V434.305H86.9588V436.396H85.6406V437.533H86.9588V442.987C86.9588 444.51 88.1861 445.237 89.3224 445.237C89.8224 445.237 90.1406 445.146 90.3224 445.078L90.0497 443.874C89.9361 443.896 89.7543 443.942 89.4588 443.942C88.8679 443.942 88.2997 443.76 88.2997 442.624V437.533H90.1634V436.396ZM95.6321 445.305C97.5639 445.305 98.8366 444.124 99.0639 442.578H97.723C97.473 443.533 96.6776 444.101 95.6321 444.101C94.0412 444.101 93.0185 442.783 93.0185 440.76C93.0185 438.783 94.0639 437.487 95.6321 437.487C96.8139 437.487 97.5185 438.214 97.723 439.01H99.0639C98.8366 437.374 97.4503 436.283 95.6094 436.283C93.2457 436.283 91.6776 438.146 91.6776 440.805C91.6776 443.419 93.1776 445.305 95.6321 445.305ZM104.57 445.305C106.933 445.305 108.524 443.51 108.524 440.805C108.524 438.078 106.933 436.283 104.57 436.283C102.206 436.283 100.615 438.078 100.615 440.805C100.615 443.51 102.206 445.305 104.57 445.305ZM104.57 444.101C102.774 444.101 101.956 442.555 101.956 440.805C101.956 439.055 102.774 437.487 104.57 437.487C106.365 437.487 107.183 439.055 107.183 440.805C107.183 442.555 106.365 444.101 104.57 444.101ZM110.571 445.124H111.912V436.396H110.571V445.124ZM111.253 434.942C111.776 434.942 112.207 434.533 112.207 434.033C112.207 433.533 111.776 433.124 111.253 433.124C110.73 433.124 110.298 433.533 110.298 434.033C110.298 434.533 110.73 434.942 111.253 434.942ZM115.709 439.874C115.709 438.351 116.652 437.487 117.936 437.487C119.18 437.487 119.936 438.3 119.936 439.669V445.124H121.277V439.578C121.277 437.351 120.089 436.283 118.322 436.283C117.004 436.283 116.186 436.874 115.777 437.76H115.663V436.396H114.368V445.124H115.709V439.874Z" fill="#1A202C"/>
<path d="M331.233 361.436H337.457V360.342H332.466V356.882H337.06V355.788H332.466V352.348H337.378V351.254H331.233V361.436ZM340.316 353.8H338.964L341.39 357.618L338.964 361.436H340.316L342.146 358.473L343.975 361.436H345.327L342.862 357.618L345.327 353.8H343.975L342.146 356.922L340.316 353.8ZM349.789 361.595C351.48 361.595 352.593 360.561 352.792 359.209H351.619C351.4 360.044 350.704 360.541 349.789 360.541C348.397 360.541 347.502 359.388 347.502 357.618C347.502 355.888 348.417 354.754 349.789 354.754C350.824 354.754 351.44 355.39 351.619 356.086H352.792C352.593 354.655 351.38 353.7 349.77 353.7C347.701 353.7 346.329 355.331 346.329 357.658C346.329 359.944 347.642 361.595 349.789 361.595ZM355.681 356.842C355.681 355.51 356.531 354.754 357.689 354.754C358.793 354.754 359.459 355.45 359.459 356.663V361.436H360.632V356.584C360.632 354.62 359.588 353.7 358.027 353.7C356.824 353.7 356.138 354.202 355.78 354.993H355.681V351.254H354.507V361.436H355.681V356.842ZM365.026 361.615C366.358 361.615 367.055 360.899 367.293 360.402H367.353V361.436H368.526V356.405C368.526 353.979 366.677 353.7 365.702 353.7C364.549 353.7 363.236 354.098 362.64 355.49L363.753 355.888C364.012 355.331 364.623 354.734 365.742 354.734C366.821 354.734 367.353 355.306 367.353 356.285V356.325C367.353 356.892 366.776 356.842 365.384 357.021C363.967 357.205 362.421 357.518 362.421 359.268C362.421 360.76 363.574 361.615 365.026 361.615ZM365.205 360.561C364.27 360.561 363.594 360.143 363.594 359.328C363.594 358.433 364.41 358.155 365.324 358.035C365.822 357.976 367.154 357.836 367.353 357.598V358.672C367.353 359.626 366.597 360.561 365.205 360.561ZM371.841 356.842C371.841 355.51 372.666 354.754 373.79 354.754C374.879 354.754 375.54 355.465 375.54 356.663V361.436H376.713V356.584C376.713 354.635 375.674 353.7 374.128 353.7C372.974 353.7 372.259 354.217 371.901 354.993H371.801V353.8H370.668V361.436H371.841V356.842ZM381.939 364.459C383.769 364.459 385.241 363.623 385.241 361.655V353.8H384.107V355.013H383.988C383.729 354.615 383.252 353.7 381.76 353.7C379.831 353.7 378.499 355.231 378.499 357.578C378.499 359.964 379.891 361.317 381.741 361.317C383.232 361.317 383.709 360.442 383.968 360.024H384.067V361.575C384.067 362.848 383.172 363.425 381.939 363.425C380.552 363.425 380.065 362.694 379.752 362.271L378.817 362.927C379.295 363.728 380.234 364.459 381.939 364.459ZM381.9 360.263C380.428 360.263 379.672 359.149 379.672 357.558C379.672 356.007 380.408 354.754 381.9 354.754C383.331 354.754 384.087 355.908 384.087 357.558C384.087 359.248 383.312 360.263 381.9 360.263ZM390.59 361.595C392.141 361.595 393.275 360.819 393.633 359.666L392.499 359.348C392.201 360.143 391.51 360.541 390.59 360.541C389.213 360.541 388.263 359.651 388.209 358.015H393.752V357.518C393.752 354.675 392.062 353.7 390.471 353.7C388.403 353.7 387.03 355.331 387.03 357.677C387.03 360.024 388.383 361.595 390.59 361.595ZM388.209 357.001C388.288 355.813 389.128 354.754 390.471 354.754C391.743 354.754 392.559 355.709 392.559 357.001H388.209ZM399.474 361.436H400.648V356.604C400.648 355.569 401.463 354.814 402.577 354.814C402.89 354.814 403.213 354.873 403.292 354.893V353.7C403.158 353.69 402.85 353.68 402.676 353.68C401.761 353.68 400.966 354.197 400.687 354.953H400.608V353.8H399.474V361.436ZM406.93 361.615C408.263 361.615 408.959 360.899 409.197 360.402H409.257V361.436H410.43V356.405C410.43 353.979 408.581 353.7 407.607 353.7C406.453 353.7 405.141 354.098 404.544 355.49L405.658 355.888C405.916 355.331 406.528 354.734 407.646 354.734C408.725 354.734 409.257 355.306 409.257 356.285V356.325C409.257 356.892 408.68 356.842 407.288 357.021C405.871 357.205 404.325 357.518 404.325 359.268C404.325 360.76 405.479 361.615 406.93 361.615ZM407.109 360.561C406.175 360.561 405.499 360.143 405.499 359.328C405.499 358.433 406.314 358.155 407.229 358.035C407.726 357.976 409.058 357.836 409.257 357.598V358.672C409.257 359.626 408.501 360.561 407.109 360.561ZM415.893 353.8H414.262V351.97H413.089V353.8H411.936V354.794H413.089V359.567C413.089 360.899 414.163 361.535 415.157 361.535C415.595 361.535 415.873 361.456 416.032 361.396L415.794 360.342C415.694 360.362 415.535 360.402 415.276 360.402C414.759 360.402 414.262 360.243 414.262 359.248V354.794H415.893V353.8ZM420.778 361.595C422.329 361.595 423.462 360.819 423.82 359.666L422.687 359.348C422.388 360.143 421.697 360.541 420.778 360.541C419.4 360.541 418.451 359.651 418.396 358.015H423.939V357.518C423.939 354.675 422.249 353.7 420.658 353.7C418.59 353.7 417.218 355.331 417.218 357.677C417.218 360.024 418.57 361.595 420.778 361.595ZM418.396 357.001C418.476 355.813 419.316 354.754 420.658 354.754C421.931 354.754 422.746 355.709 422.746 357.001H418.396Z" fill="#64748B"/>
<path d="M63.5241 361.605C65.8757 361.605 67.2528 359.686 67.2528 356.35C67.2528 353.039 65.8558 351.115 63.5241 351.115C61.1875 351.115 59.7955 353.034 59.7905 356.35C59.7905 359.681 61.1676 361.6 63.5241 361.605ZM63.5241 360.278C62.147 360.278 61.3168 358.895 61.3168 356.35C61.3217 353.814 62.152 352.417 63.5241 352.417C64.8913 352.417 65.7266 353.814 65.7266 356.35C65.7266 358.895 64.8963 360.278 63.5241 360.278ZM69.633 361.53C70.1749 361.53 70.6273 361.088 70.6273 360.536C70.6273 359.994 70.1749 359.547 69.633 359.547C69.0861 359.547 68.6387 359.994 68.6387 360.536C68.6387 361.088 69.0861 361.53 69.633 361.53ZM75.7605 361.605C78.112 361.605 79.4892 359.686 79.4892 356.35C79.4892 353.039 78.0922 351.115 75.7605 351.115C73.4238 351.115 72.0318 353.034 72.0268 356.35C72.0268 359.681 73.4039 361.6 75.7605 361.605ZM75.7605 360.278C74.3833 360.278 73.5531 358.895 73.5531 356.35C73.5581 353.814 74.3883 352.417 75.7605 352.417C77.1277 352.417 77.9629 353.814 77.9629 356.35C77.9629 358.895 77.1326 360.278 75.7605 360.278ZM85.1158 351.254H83.6193L81.0788 352.915V354.386L83.5149 352.795H83.5746V361.436H85.1158V351.254ZM91.7143 361.436H95.617C97.9835 361.436 99.0524 360.258 99.0524 358.697C99.0524 357.121 97.9487 356.231 96.9395 356.176V356.077C97.8741 355.838 98.6547 355.202 98.6547 353.929C98.6547 352.422 97.6106 351.254 95.443 351.254H91.7143V361.436ZM93.2505 360.118V356.857H95.5225C96.7555 356.857 97.5261 357.653 97.5261 358.622C97.5261 359.477 96.9444 360.118 95.4679 360.118H93.2505ZM93.2505 355.659V352.562H95.3485C96.5666 352.562 97.1483 353.203 97.1483 354.048C97.1483 355.033 96.3429 355.659 95.3088 355.659H93.2505ZM100.755 361.436H102.242V353.8H100.755V361.436ZM101.506 352.621C102.018 352.621 102.445 352.224 102.445 351.736C102.445 351.249 102.018 350.846 101.506 350.846C100.989 350.846 100.566 351.249 100.566 351.736C100.566 352.224 100.989 352.621 101.506 352.621ZM107.806 353.8H106.24V351.97H104.754V353.8H103.635V354.993H104.754V359.502C104.749 360.889 105.808 361.56 106.981 361.535C107.453 361.53 107.771 361.441 107.945 361.376L107.677 360.148C107.577 360.168 107.393 360.213 107.155 360.213C106.673 360.213 106.24 360.054 106.24 359.194V354.993H107.806V353.8ZM112.585 361.59C114.39 361.59 115.558 360.506 115.722 359.02H114.275C114.086 359.845 113.445 360.332 112.595 360.332C111.337 360.332 110.527 359.283 110.527 357.618C110.527 355.982 111.352 354.953 112.595 354.953C113.54 354.953 114.116 355.55 114.275 356.265H115.722C115.563 354.724 114.305 353.7 112.57 353.7C110.417 353.7 109.025 355.321 109.025 357.653C109.025 359.954 110.368 361.59 112.585 361.59ZM120.528 361.59C122.681 361.59 124.088 360.014 124.088 357.653C124.088 355.276 122.681 353.7 120.528 353.7C118.376 353.7 116.969 355.276 116.969 357.653C116.969 360.014 118.376 361.59 120.528 361.59ZM120.533 360.342C119.126 360.342 118.47 359.114 118.47 357.648C118.47 356.186 119.126 354.943 120.533 354.943C121.93 354.943 122.587 356.186 122.587 357.648C122.587 359.114 121.93 360.342 120.533 360.342ZM125.747 361.436H127.234V353.8H125.747V361.436ZM126.498 352.621C127.01 352.621 127.438 352.224 127.438 351.736C127.438 351.249 127.01 350.846 126.498 350.846C125.981 350.846 125.558 351.249 125.558 351.736C125.558 352.224 125.981 352.621 126.498 352.621ZM130.72 356.902C130.72 355.684 131.466 354.988 132.5 354.988C133.509 354.988 134.121 355.649 134.121 356.758V361.436H135.607V356.579C135.607 354.689 134.568 353.7 133.007 353.7C131.859 353.7 131.108 354.232 130.755 355.042H130.661V353.8H129.234V361.436H130.72V356.902Z" fill="#64748B"/>
<path d="M59.9794 325.64H66.6811V324.323H62.0973V324.248L64.1207 322.13C65.9851 320.246 66.517 319.346 66.517 318.208C66.517 316.572 65.1847 315.319 63.2656 315.319C61.3615 315.319 59.9695 316.552 59.9695 318.412H61.4361C61.4311 317.318 62.1371 316.602 63.2358 316.602C64.2699 316.602 65.0554 317.238 65.0554 318.252C65.0554 319.152 64.5185 319.799 63.4247 320.957L59.9794 324.527V325.64ZM72.1101 325.809C74.4616 325.809 75.8388 323.89 75.8388 320.554C75.8388 317.243 74.4418 315.319 72.1101 315.319C69.7734 315.319 68.3814 317.238 68.3764 320.554C68.3764 323.885 69.7536 325.804 72.1101 325.809ZM72.1101 324.482C70.733 324.482 69.9027 323.1 69.9027 320.554C69.9077 318.019 70.7379 316.622 72.1101 316.622C73.4773 316.622 74.3125 318.019 74.3125 320.554C74.3125 323.1 73.4822 324.482 72.1101 324.482ZM81.1472 325.809C83.4988 325.809 84.8759 323.89 84.8759 320.554C84.8759 317.243 83.4789 315.319 81.1472 315.319C78.8105 315.319 77.4185 317.238 77.4135 320.554C77.4135 323.885 78.7907 325.804 81.1472 325.809ZM81.1472 324.482C79.7701 324.482 78.9398 323.1 78.9398 320.554C78.9448 318.019 79.775 316.622 81.1472 316.622C82.5144 316.622 83.3496 318.019 83.3496 320.554C83.3496 323.1 82.5194 324.482 81.1472 324.482ZM90.4838 325.64H94.3865C96.753 325.64 97.8219 324.462 97.8219 322.901C97.8219 321.325 96.7182 320.435 95.709 320.38V320.281C96.6436 320.042 97.4242 319.406 97.4242 318.133C97.4242 316.627 96.3801 315.458 94.2125 315.458H90.4838V325.64ZM92.0201 324.323V321.061H94.2921C95.525 321.061 96.2956 321.857 96.2956 322.826C96.2956 323.681 95.714 324.323 94.2374 324.323H92.0201ZM92.0201 319.863V316.766H94.1181C95.3361 316.766 95.9178 317.407 95.9178 318.252C95.9178 319.237 95.1124 319.863 94.0783 319.863H92.0201ZM99.5247 325.64H101.011V318.004H99.5247V325.64ZM100.275 316.826C100.787 316.826 101.215 316.428 101.215 315.941C101.215 315.453 100.787 315.051 100.275 315.051C99.7583 315.051 99.3358 315.453 99.3358 315.941C99.3358 316.428 99.7583 316.826 100.275 316.826ZM106.576 318.004H105.01V316.174H103.523V318.004H102.404V319.197H103.523V323.706C103.518 325.093 104.577 325.765 105.75 325.74C106.223 325.735 106.541 325.645 106.715 325.581L106.446 324.353C106.347 324.373 106.163 324.417 105.924 324.417C105.442 324.417 105.01 324.258 105.01 323.398V319.197H106.576V318.004ZM111.355 325.794C113.159 325.794 114.328 324.711 114.492 323.224H113.045C112.856 324.049 112.215 324.537 111.365 324.537C110.107 324.537 109.296 323.488 109.296 321.822C109.296 320.186 110.122 319.157 111.365 319.157C112.309 319.157 112.886 319.754 113.045 320.47H114.492C114.333 318.929 113.075 317.904 111.34 317.904C109.187 317.904 107.795 319.525 107.795 321.857C107.795 324.159 109.137 325.794 111.355 325.794ZM119.298 325.794C121.451 325.794 122.858 324.218 122.858 321.857C122.858 319.48 121.451 317.904 119.298 317.904C117.145 317.904 115.738 319.48 115.738 321.857C115.738 324.218 117.145 325.794 119.298 325.794ZM119.303 324.547C117.896 324.547 117.24 323.319 117.24 321.852C117.24 320.39 117.896 319.147 119.303 319.147C120.7 319.147 121.356 320.39 121.356 321.852C121.356 323.319 120.7 324.547 119.303 324.547ZM124.517 325.64H126.003V318.004H124.517V325.64ZM125.268 316.826C125.78 316.826 126.207 316.428 126.207 315.941C126.207 315.453 125.78 315.051 125.268 315.051C124.751 315.051 124.328 315.453 124.328 315.941C124.328 316.428 124.751 316.826 125.268 316.826ZM129.49 321.106C129.49 319.888 130.235 319.192 131.27 319.192C132.279 319.192 132.89 319.853 132.89 320.962V325.64H134.377V320.783C134.377 318.894 133.338 317.904 131.777 317.904C130.628 317.904 129.877 318.436 129.525 319.247H129.43V318.004H128.003V325.64H129.49V321.106ZM142.093 319.868C141.784 318.68 140.855 317.904 139.204 317.904C137.479 317.904 136.256 318.814 136.256 320.167C136.256 321.25 136.912 321.971 138.344 322.289L139.637 322.573C140.373 322.737 140.716 323.065 140.716 323.542C140.716 324.134 140.084 324.596 139.11 324.596C138.22 324.596 137.648 324.213 137.469 323.463L136.032 323.681C136.281 325.034 137.404 325.794 139.12 325.794C140.964 325.794 142.242 324.815 142.242 323.433C142.242 322.354 141.556 321.688 140.154 321.365L138.941 321.086C138.1 320.887 137.738 320.604 137.743 320.087C137.738 319.5 138.374 319.083 139.219 319.083C140.144 319.083 140.571 319.595 140.745 320.107L142.093 319.868Z" fill="#64748B"/>
<path d="M100.278 54.3707H102.034V50.2798H104.42C107.119 50.2798 108.455 48.6491 108.455 46.5014C108.455 44.3594 107.131 42.7344 104.426 42.7344H100.278V54.3707ZM102.034 48.7912V44.24H104.239C105.977 44.24 106.688 45.1832 106.688 46.5014C106.688 47.8196 105.977 48.7912 104.261 48.7912H102.034ZM112.838 54.5639C114.281 54.5639 115.094 53.831 115.418 53.1775H115.486V54.3707H117.145V48.5753C117.145 46.0355 115.145 45.5298 113.759 45.5298C112.179 45.5298 110.724 46.1662 110.156 47.7571L111.753 48.1207C112.003 47.5014 112.639 46.9048 113.781 46.9048C114.878 46.9048 115.44 47.4787 115.44 48.4673V48.5071C115.44 49.1264 114.804 49.115 113.236 49.2969C111.582 49.49 109.889 49.9219 109.889 51.9048C109.889 53.6207 111.179 54.5639 112.838 54.5639ZM113.207 53.2003C112.247 53.2003 111.554 52.7685 111.554 51.9275C111.554 51.0185 112.361 50.6946 113.344 50.5639C113.895 50.49 115.202 50.3423 115.446 50.098V51.223C115.446 52.2571 114.622 53.2003 113.207 53.2003ZM120.169 57.6435C121.572 57.6435 122.459 56.9105 122.964 55.5355L126.572 45.6605L124.737 45.6435L122.527 52.4162H122.436L120.226 45.6435H118.408L121.601 54.4844L121.391 55.0639C120.959 56.223 120.351 56.3196 119.419 56.0639L119.01 57.456C119.214 57.5469 119.658 57.6435 120.169 57.6435ZM132.408 54.3707H134.107V45.6435H132.408V54.3707ZM133.266 44.2969C133.851 44.2969 134.339 43.8423 134.339 43.2855C134.339 42.7287 133.851 42.2685 133.266 42.2685C132.675 42.2685 132.192 42.7287 132.192 43.2855C132.192 43.8423 132.675 44.2969 133.266 44.2969ZM138.091 49.1889C138.091 47.7969 138.943 47.0014 140.125 47.0014C141.278 47.0014 141.977 47.7571 141.977 49.0241V54.3707H143.676V48.8196C143.676 46.6605 142.489 45.5298 140.705 45.5298C139.392 45.5298 138.534 46.1378 138.131 47.0639H138.023V45.6435H136.392V54.3707H138.091V49.1889ZM150.325 54.3707H154.786C157.49 54.3707 158.712 53.0241 158.712 51.24C158.712 49.4389 157.45 48.4219 156.297 48.3594V48.2457C157.365 47.973 158.257 47.2457 158.257 45.7912C158.257 44.0696 157.064 42.7344 154.587 42.7344H150.325V54.3707ZM152.081 52.865V49.1378H154.678C156.087 49.1378 156.967 50.0469 156.967 51.1548C156.967 52.1321 156.303 52.865 154.615 52.865H152.081ZM152.081 47.7685V44.2287H154.479C155.871 44.2287 156.536 44.9616 156.536 45.9275C156.536 47.0525 155.615 47.7685 154.433 47.7685H152.081ZM160.658 54.3707H162.357V45.6435H160.658V54.3707ZM161.516 44.2969C162.101 44.2969 162.589 43.8423 162.589 43.2855C162.589 42.7287 162.101 42.2685 161.516 42.2685C160.925 42.2685 160.442 42.7287 160.442 43.2855C160.442 43.8423 160.925 44.2969 161.516 44.2969ZM168.716 45.6435H166.926V43.5525H165.227V45.6435H163.949V47.0071H165.227V52.1605C165.222 53.7457 166.432 54.5128 167.773 54.4844C168.312 54.4787 168.676 54.3764 168.875 54.3025L168.568 52.8991C168.455 52.9219 168.244 52.973 167.972 52.973C167.42 52.973 166.926 52.7912 166.926 51.8082V47.0071H168.716V45.6435ZM174.178 54.5469C176.24 54.5469 177.575 53.3082 177.763 51.6094H176.109C175.893 52.5525 175.161 53.1094 174.189 53.1094C172.751 53.1094 171.825 51.9105 171.825 50.0071C171.825 48.1378 172.768 46.9616 174.189 46.9616C175.268 46.9616 175.928 47.6435 176.109 48.4616H177.763C177.581 46.7003 176.143 45.5298 174.161 45.5298C171.7 45.5298 170.109 47.3821 170.109 50.0469C170.109 52.6775 171.643 54.5469 174.178 54.5469ZM183.256 54.5469C185.716 54.5469 187.324 52.7457 187.324 50.0469C187.324 47.331 185.716 45.5298 183.256 45.5298C180.795 45.5298 179.188 47.331 179.188 50.0469C179.188 52.7457 180.795 54.5469 183.256 54.5469ZM183.261 53.1207C181.653 53.1207 180.903 51.7173 180.903 50.0412C180.903 48.3707 181.653 46.9503 183.261 46.9503C184.858 46.9503 185.608 48.3707 185.608 50.0412C185.608 51.7173 184.858 53.1207 183.261 53.1207ZM189.22 54.3707H190.919V45.6435H189.22V54.3707ZM190.078 44.2969C190.663 44.2969 191.152 43.8423 191.152 43.2855C191.152 42.7287 190.663 42.2685 190.078 42.2685C189.487 42.2685 189.004 42.7287 189.004 43.2855C189.004 43.8423 189.487 44.2969 190.078 44.2969ZM194.903 49.1889C194.903 47.7969 195.756 47.0014 196.938 47.0014C198.091 47.0014 198.79 47.7571 198.79 49.0241V54.3707H200.489V48.8196C200.489 46.6605 199.301 45.5298 197.517 45.5298C196.205 45.5298 195.347 46.1378 194.943 47.0639H194.835V45.6435H193.205V54.3707H194.903V49.1889Z" fill="#1A202C"/>
<path d="M105.801 66.7626H106.994C106.94 65.2263 105.523 64.0779 103.554 64.0779C101.605 64.0779 100.074 65.2114 100.074 66.9217C100.074 68.2938 101.068 69.1092 102.659 69.5665L103.912 69.9245C104.986 70.2228 105.94 70.6006 105.94 71.6148C105.94 72.7285 104.866 73.4643 103.455 73.4643C102.241 73.4643 101.168 72.9273 101.068 71.7739H99.7955C99.9148 73.4444 101.267 74.5779 103.455 74.5779C105.801 74.5779 107.134 73.2853 107.134 71.6347C107.134 69.7256 105.324 69.1092 104.27 68.8307L103.236 68.5523C102.48 68.3535 101.267 67.9557 101.267 66.862C101.267 65.8876 102.162 65.1717 103.514 65.1717C104.747 65.1717 105.682 65.7583 105.801 66.7626ZM112.203 74.558C113.754 74.558 114.888 73.7824 115.246 72.629L114.112 72.3109C113.814 73.1063 113.123 73.504 112.203 73.504C110.826 73.504 109.877 72.6141 109.822 70.9785H115.365V70.4813C115.365 67.6376 113.675 66.6631 112.084 66.6631C110.016 66.6631 108.644 68.2938 108.644 70.6404C108.644 72.987 109.996 74.558 112.203 74.558ZM109.822 69.9643C109.901 68.7761 110.742 67.7171 112.084 67.7171C113.357 67.7171 114.172 68.6717 114.172 69.9643H109.822ZM118.323 64.2171H117.15V74.3989H118.323V64.2171ZM123.674 74.558C125.225 74.558 126.359 73.7824 126.717 72.629L125.583 72.3109C125.285 73.1063 124.594 73.504 123.674 73.504C122.297 73.504 121.347 72.6141 121.293 70.9785H126.836V70.4813C126.836 67.6376 125.146 66.6631 123.555 66.6631C121.487 66.6631 120.114 68.2938 120.114 70.6404C120.114 72.987 121.467 74.558 123.674 74.558ZM121.293 69.9643C121.372 68.7761 122.212 67.7171 123.555 67.7171C124.827 67.7171 125.643 68.6717 125.643 69.9643H121.293ZM131.723 74.558C133.413 74.558 134.527 73.5239 134.726 72.1717H133.553C133.334 73.0069 132.638 73.504 131.723 73.504C130.331 73.504 129.436 72.3506 129.436 70.5807C129.436 68.8506 130.351 67.7171 131.723 67.7171C132.757 67.7171 133.374 68.3535 133.553 69.0495H134.726C134.527 67.6177 133.314 66.6631 131.703 66.6631C129.635 66.6631 128.263 68.2938 128.263 70.6205C128.263 72.9074 129.575 74.558 131.723 74.558ZM139.762 66.7626H138.131V64.933H136.958V66.7626H135.805V67.7569H136.958V72.5296C136.958 73.862 138.032 74.4984 139.026 74.4984C139.464 74.4984 139.742 74.4188 139.901 74.3592L139.663 73.3052C139.563 73.3251 139.404 73.3648 139.146 73.3648C138.629 73.3648 138.131 73.2057 138.131 72.2114V67.7569H139.762V66.7626ZM147.712 74.5779C149.044 74.5779 149.74 73.862 149.979 73.3648H150.038V74.3989H151.212V69.3677C151.212 66.9415 149.362 66.6631 148.388 66.6631C147.234 66.6631 145.922 67.0609 145.325 68.4529L146.439 68.8506C146.697 68.2938 147.309 67.6972 148.428 67.6972C149.506 67.6972 150.038 68.269 150.038 69.2484V69.2881C150.038 69.8549 149.462 69.8052 148.07 69.9842C146.653 70.1681 145.107 70.4813 145.107 72.2313C145.107 73.7228 146.26 74.5779 147.712 74.5779ZM147.891 73.5239C146.956 73.5239 146.28 73.1063 146.28 72.291C146.28 71.3961 147.095 71.1177 148.01 70.9984C148.507 70.9387 149.839 70.7995 150.038 70.5609V71.6347C150.038 72.5893 149.283 73.5239 147.891 73.5239ZM157.291 74.3989H158.464V69.5665C158.464 68.5324 159.279 67.7768 160.393 67.7768C160.706 67.7768 161.029 67.8364 161.109 67.8563V66.6631C160.975 66.6532 160.666 66.6432 160.492 66.6432C159.578 66.6432 158.782 67.1603 158.504 67.916H158.424V66.7626H157.291V74.3989ZM165.469 74.558C167.02 74.558 168.154 73.7824 168.512 72.629L167.378 72.3109C167.08 73.1063 166.389 73.504 165.469 73.504C164.092 73.504 163.142 72.6141 163.088 70.9785H168.631V70.4813C168.631 67.6376 166.941 66.6631 165.35 66.6631C163.281 66.6631 161.909 68.2938 161.909 70.6404C161.909 72.987 163.262 74.558 165.469 74.558ZM163.088 69.9643C163.167 68.7761 164.007 67.7171 165.35 67.7171C166.622 67.7171 167.438 68.6717 167.438 69.9643H163.088ZM173.518 74.558C175.208 74.558 176.322 73.5239 176.521 72.1717H175.347C175.129 73.0069 174.433 73.504 173.518 73.504C172.126 73.504 171.231 72.3506 171.231 70.5807C171.231 68.8506 172.146 67.7171 173.518 67.7171C174.552 67.7171 175.169 68.3535 175.347 69.0495H176.521C176.322 67.6177 175.109 66.6631 173.498 66.6631C171.43 66.6631 170.058 68.2938 170.058 70.6205C170.058 72.9074 171.37 74.558 173.518 74.558ZM178.236 74.3989H179.409V66.7626H178.236V74.3989ZM178.833 65.4898C179.29 65.4898 179.668 65.1319 179.668 64.6944C179.668 64.2569 179.29 63.8989 178.833 63.8989C178.375 63.8989 177.997 64.2569 177.997 64.6944C177.997 65.1319 178.375 65.4898 178.833 65.4898ZM181.558 77.2626H182.732V73.2256H182.831C183.089 73.6432 183.587 74.558 185.058 74.558C186.967 74.558 188.3 73.0268 188.3 70.6006C188.3 68.1944 186.967 66.6631 185.038 66.6631C183.547 66.6631 183.089 67.5779 182.831 67.9756H182.692V66.7626H181.558V77.2626ZM182.712 70.5807C182.712 68.8705 183.467 67.7171 184.899 67.7171C186.391 67.7171 187.126 68.9699 187.126 70.5807C187.126 72.2114 186.371 73.504 184.899 73.504C183.487 73.504 182.712 72.3109 182.712 70.5807ZM190.089 74.3989H191.263V66.7626H190.089V74.3989ZM190.686 65.4898C191.143 65.4898 191.521 65.1319 191.521 64.6944C191.521 64.2569 191.143 63.8989 190.686 63.8989C190.229 63.8989 189.851 64.2569 189.851 64.6944C189.851 65.1319 190.229 65.4898 190.686 65.4898ZM196.613 74.558C198.165 74.558 199.298 73.7824 199.656 72.629L198.523 72.3109C198.224 73.1063 197.533 73.504 196.613 73.504C195.236 73.504 194.287 72.6141 194.232 70.9785H199.775V70.4813C199.775 67.6376 198.085 66.6631 196.494 66.6631C194.426 66.6631 193.054 68.2938 193.054 70.6404C193.054 72.987 194.406 74.558 196.613 74.558ZM194.232 69.9643C194.312 68.7761 195.152 67.7171 196.494 67.7171C197.767 67.7171 198.582 68.6717 198.582 69.9643H194.232ZM202.733 69.8052C202.733 68.4728 203.559 67.7171 204.682 67.7171C205.771 67.7171 206.432 68.428 206.432 69.6262V74.3989H207.606V69.5467C207.606 67.5978 206.567 66.6631 205.02 66.6631C203.867 66.6631 203.151 67.1802 202.793 67.9557H202.694V66.7626H201.56V74.3989H202.733V69.8052ZM213.071 66.7626H211.44V64.933H210.267V66.7626H209.113V67.7569H210.267V72.5296C210.267 73.862 211.341 74.4984 212.335 74.4984C212.772 74.4984 213.051 74.4188 213.21 74.3592L212.971 73.3052C212.872 73.3251 212.713 73.3648 212.454 73.3648C211.937 73.3648 211.44 73.2057 211.44 72.2114V67.7569H213.071V66.7626ZM221.02 74.5779C222.353 74.5779 223.049 73.862 223.287 73.3648H223.347V74.3989H224.52V69.3677C224.52 66.9415 222.671 66.6631 221.696 66.6631C220.543 66.6631 219.23 67.0609 218.634 68.4529L219.748 68.8506C220.006 68.2938 220.618 67.6972 221.736 67.6972C222.815 67.6972 223.347 68.269 223.347 69.2484V69.2881C223.347 69.8549 222.77 69.8052 221.378 69.9842C219.961 70.1681 218.415 70.4813 218.415 72.2313C218.415 73.7228 219.569 74.5779 221.02 74.5779ZM221.199 73.5239C220.265 73.5239 219.588 73.1063 219.588 72.291C219.588 71.3961 220.404 71.1177 221.319 70.9984C221.816 70.9387 223.148 70.7995 223.347 70.5609V71.6347C223.347 72.5893 222.591 73.5239 221.199 73.5239ZM227.835 69.8052C227.835 68.4728 228.66 67.7171 229.784 67.7171C230.873 67.7171 231.534 68.428 231.534 69.6262V74.3989H232.707V69.5467C232.707 67.5978 231.668 66.6631 230.122 66.6631C228.969 66.6631 228.253 67.1802 227.895 67.9557H227.795V66.7626H226.662V74.3989H227.835V69.8052ZM237.735 74.558C239.206 74.558 239.703 73.6432 239.962 73.2256H240.101V74.3989H241.235V64.2171H240.061V67.9756H239.962C239.703 67.5779 239.246 66.6631 237.755 66.6631C235.826 66.6631 234.493 68.1944 234.493 70.6006C234.493 73.0268 235.826 74.558 237.735 74.558ZM237.894 73.504C236.422 73.504 235.667 72.2114 235.667 70.5807C235.667 68.9699 236.402 67.7171 237.894 67.7171C239.326 67.7171 240.081 68.8705 240.081 70.5807C240.081 72.3109 239.306 73.504 237.894 73.504ZM250.805 66.7626H249.174V64.933H248.001V66.7626H246.848V67.7569H248.001V72.5296C248.001 73.862 249.075 74.4984 250.069 74.4984C250.507 74.4984 250.785 74.4188 250.944 74.3592L250.706 73.3052C250.606 73.3251 250.447 73.3648 250.189 73.3648C249.672 73.3648 249.174 73.2057 249.174 72.2114V67.7569H250.805V66.7626ZM253.907 69.8052C253.907 68.4728 254.757 67.7171 255.916 67.7171C257.02 67.7171 257.686 68.4131 257.686 69.6262V74.3989H258.859V69.5467C258.859 67.5829 257.815 66.6631 256.254 66.6631C255.051 66.6631 254.365 67.1653 254.007 67.9557H253.907V64.2171H252.734V74.3989H253.907V69.8052ZM264.207 74.558C265.758 74.558 266.892 73.7824 267.25 72.629L266.116 72.3109C265.818 73.1063 265.127 73.504 264.207 73.504C262.83 73.504 261.881 72.6141 261.826 70.9785H267.369V70.4813C267.369 67.6376 265.679 66.6631 264.088 66.6631C262.02 66.6631 260.648 68.2938 260.648 70.6404C260.648 72.987 262 74.558 264.207 74.558ZM261.826 69.9643C261.905 68.7761 262.746 67.7171 264.088 67.7171C265.361 67.7171 266.176 68.6717 266.176 69.9643H261.826ZM275.339 74.5779C276.671 74.5779 277.367 73.862 277.606 73.3648H277.665V74.3989H278.839V69.3677C278.839 66.9415 276.989 66.6631 276.015 66.6631C274.861 66.6631 273.549 67.0609 272.952 68.4529L274.066 68.8506C274.324 68.2938 274.936 67.6972 276.055 67.6972C277.133 67.6972 277.665 68.269 277.665 69.2484V69.2881C277.665 69.8549 277.089 69.8052 275.697 69.9842C274.28 70.1681 272.733 70.4813 272.733 72.2313C272.733 73.7228 273.887 74.5779 275.339 74.5779ZM275.518 73.5239C274.583 73.5239 273.907 73.1063 273.907 72.291C273.907 71.3961 274.722 71.1177 275.637 70.9984C276.134 70.9387 277.466 70.7995 277.665 70.5609V71.6347C277.665 72.5893 276.91 73.5239 275.518 73.5239ZM280.98 74.3989H282.153V69.6262C282.153 68.5076 282.969 67.7171 283.884 67.7171C284.773 67.7171 285.395 68.2988 285.395 69.1688V74.3989H286.588V69.4273C286.588 68.443 287.205 67.7171 288.278 67.7171C289.114 67.7171 289.83 68.1596 289.83 69.2881V74.3989H291.003V69.2881C291.003 67.4934 290.038 66.6631 288.676 66.6631C287.582 66.6631 286.782 67.1653 286.389 67.9557H286.31C285.932 67.1404 285.266 66.6631 284.261 66.6631C283.267 66.6631 282.531 67.1404 282.213 67.9557H282.114V66.7626H280.98V74.3989ZM296.25 74.558C298.319 74.558 299.711 72.987 299.711 70.6205C299.711 68.2342 298.319 66.6631 296.25 66.6631C294.182 66.6631 292.79 68.2342 292.79 70.6205C292.79 72.987 294.182 74.558 296.25 74.558ZM296.25 73.504C294.679 73.504 293.963 72.1518 293.963 70.6205C293.963 69.0893 294.679 67.7171 296.25 67.7171C297.821 67.7171 298.537 69.0893 298.537 70.6205C298.537 72.1518 297.821 73.504 296.25 73.504ZM306.314 71.2768C306.314 72.7086 305.22 73.3648 304.345 73.3648C303.371 73.3648 302.675 72.6489 302.675 71.5353V66.7626H301.502V71.6148C301.502 73.5637 302.536 74.4984 303.968 74.4984C305.121 74.4984 305.877 73.8819 306.235 73.1063H306.314V74.3989H307.487V66.7626H306.314V71.2768ZM310.81 69.8052C310.81 68.4728 311.635 67.7171 312.759 67.7171C313.847 67.7171 314.509 68.428 314.509 69.6262V74.3989H315.682V69.5467C315.682 67.5978 314.643 66.6631 313.097 66.6631C311.943 66.6631 311.227 67.1802 310.869 67.9557H310.77V66.7626H309.636V74.3989H310.81V69.8052ZM321.147 66.7626H319.516V64.933H318.343V66.7626H317.189V67.7569H318.343V72.5296C318.343 73.862 319.417 74.4984 320.411 74.4984C320.849 74.4984 321.127 74.4188 321.286 74.3592L321.047 73.3052C320.948 73.3251 320.789 73.3648 320.53 73.3648C320.013 73.3648 319.516 73.2057 319.516 72.2114V67.7569H321.147V66.7626ZM327.605 77.2626C328.664 77.2626 329.41 76.7008 329.852 75.5126L333.104 66.7824L331.821 66.7626L329.713 72.8478H329.633L327.525 66.7626H326.253L329.077 74.4387L328.858 75.0353C328.43 76.1986 327.903 76.308 327.048 76.0893L326.75 77.1234C326.869 77.183 327.207 77.2626 327.605 77.2626ZM337.485 74.558C339.553 74.558 340.945 72.987 340.945 70.6205C340.945 68.2342 339.553 66.6631 337.485 66.6631C335.417 66.6631 334.025 68.2342 334.025 70.6205C334.025 72.987 335.417 74.558 337.485 74.558ZM337.485 73.504C335.914 73.504 335.198 72.1518 335.198 70.6205C335.198 69.0893 335.914 67.7171 337.485 67.7171C339.056 67.7171 339.772 69.0893 339.772 70.6205C339.772 72.1518 339.056 73.504 337.485 73.504ZM347.548 71.2768C347.548 72.7086 346.455 73.3648 345.58 73.3648C344.605 73.3648 343.909 72.6489 343.909 71.5353V66.7626H342.736V71.6148C342.736 73.5637 343.77 74.4984 345.202 74.4984C346.355 74.4984 347.111 73.8819 347.469 73.1063H347.548V74.3989H348.722V66.7626H347.548V71.2768ZM356.538 74.3989H357.692L359.362 68.5324H359.482L361.152 74.3989H362.305L364.632 66.7626H363.399L361.749 72.5893H361.669L360.058 66.7626H358.805L357.175 72.6092H357.095L355.445 66.7626H354.212L356.538 74.3989ZM368.43 74.5779C369.763 74.5779 370.459 73.862 370.697 73.3648H370.757V74.3989H371.93V69.3677C371.93 66.9415 370.081 66.6631 369.107 66.6631C367.953 66.6631 366.641 67.0609 366.044 68.4529L367.158 68.8506C367.416 68.2938 368.028 67.6972 369.146 67.6972C370.225 67.6972 370.757 68.269 370.757 69.2484V69.2881C370.757 69.8549 370.18 69.8052 368.788 69.9842C367.371 70.1681 365.825 70.4813 365.825 72.2313C365.825 73.7228 366.979 74.5779 368.43 74.5779ZM368.609 73.5239C367.675 73.5239 366.999 73.1063 366.999 72.291C366.999 71.3961 367.814 71.1177 368.729 70.9984C369.226 70.9387 370.558 70.7995 370.757 70.5609V71.6347C370.757 72.5893 370.001 73.5239 368.609 73.5239ZM375.245 69.8052C375.245 68.4728 376.07 67.7171 377.194 67.7171C378.283 67.7171 378.944 68.428 378.944 69.6262V74.3989H380.117V69.5467C380.117 67.5978 379.078 66.6631 377.532 66.6631C376.379 66.6631 375.663 67.1802 375.305 67.9557H375.205V66.7626H374.072V74.3989H375.245V69.8052ZM385.582 66.7626H383.952V64.933H382.778V66.7626H381.625V67.7569H382.778V72.5296C382.778 73.862 383.852 74.4984 384.847 74.4984C385.284 74.4984 385.562 74.4188 385.722 74.3592L385.483 73.3052C385.384 73.3251 385.224 73.3648 384.966 73.3648C384.449 73.3648 383.952 73.2057 383.952 72.2114V67.7569H385.582V66.7626ZM394.606 66.7626H392.975V64.933H391.802V66.7626H390.648V67.7569H391.802V72.5296C391.802 73.862 392.876 74.4984 393.87 74.4984C394.308 74.4984 394.586 74.4188 394.745 74.3592L394.506 73.3052C394.407 73.3251 394.248 73.3648 393.989 73.3648C393.472 73.3648 392.975 73.2057 392.975 72.2114V67.7569H394.606V66.7626ZM399.391 74.558C401.459 74.558 402.851 72.987 402.851 70.6205C402.851 68.2342 401.459 66.6631 399.391 66.6631C397.323 66.6631 395.931 68.2342 395.931 70.6205C395.931 72.987 397.323 74.558 399.391 74.558ZM399.391 73.504C397.82 73.504 397.104 72.1518 397.104 70.6205C397.104 69.0893 397.82 67.7171 399.391 67.7171C400.962 67.7171 401.678 69.0893 401.678 70.6205C401.678 72.1518 400.962 73.504 399.391 73.504ZM413.989 68.4728C413.621 67.389 412.796 66.6631 411.284 66.6631C409.673 66.6631 408.48 67.5779 408.48 68.8705C408.48 69.9245 409.107 70.6305 410.509 70.9586L411.781 71.2569C412.552 71.4359 412.915 71.8038 412.915 72.3307C412.915 72.987 412.219 73.5239 411.125 73.5239C410.166 73.5239 409.564 73.1113 409.355 72.291L408.242 72.5694C408.515 73.867 409.584 74.558 411.145 74.558C412.92 74.558 414.128 73.5886 414.128 72.2711C414.128 71.2072 413.462 70.536 412.1 70.2029L410.966 69.9245C410.061 69.7008 409.654 69.3975 409.654 68.8109C409.654 68.1546 410.35 67.6773 411.284 67.6773C412.308 67.6773 412.731 68.2441 412.935 68.7711L413.989 68.4728ZM419.096 74.558C420.647 74.558 421.781 73.7824 422.138 72.629L421.005 72.3109C420.707 73.1063 420.016 73.504 419.096 73.504C417.719 73.504 416.769 72.6141 416.714 70.9785H422.258V70.4813C422.258 67.6376 420.567 66.6631 418.977 66.6631C416.908 66.6631 415.536 68.2938 415.536 70.6404C415.536 72.987 416.888 74.558 419.096 74.558ZM416.714 69.9643C416.794 68.7761 417.634 67.7171 418.977 67.7171C420.249 67.7171 421.065 68.6717 421.065 69.9643H416.714ZM425.216 69.8052C425.216 68.4728 426.041 67.7171 427.165 67.7171C428.254 67.7171 428.915 68.428 428.915 69.6262V74.3989H430.088V69.5467C430.088 67.5978 429.049 66.6631 427.503 66.6631C426.349 66.6631 425.634 67.1802 425.276 67.9557H425.176V66.7626H424.043V74.3989H425.216V69.8052ZM435.116 74.558C436.587 74.558 437.084 73.6432 437.343 73.2256H437.482V74.3989H438.616V64.2171H437.442V67.9756H437.343C437.084 67.5779 436.627 66.6631 435.135 66.6631C433.206 66.6631 431.874 68.1944 431.874 70.6006C431.874 73.0268 433.206 74.558 435.116 74.558ZM435.275 73.504C433.803 73.504 433.047 72.2114 433.047 70.5807C433.047 68.9699 433.783 67.7171 435.275 67.7171C436.706 67.7171 437.462 68.8705 437.462 70.5807C437.462 72.3109 436.687 73.504 435.275 73.504Z" fill="#64748B"/>
<defs>
<filter id="filter0_dd" x="0" y="0" width="490" height="580.703" filterUnits="userSpaceOnUse" color-interpolation-filters="sRGB">
<feFlood flood-opacity="0" result="BackgroundImageFix"/>
<feColorMatrix in="SourceAlpha" type="matrix" values="0 0 0 0 0 0 0 0 0 0 0 0 0 0 0 0 0 0 127 0"/>
<feOffset dy="3"/>
<feGaussianBlur stdDeviation="3"/>
<feColorMatrix type="matrix" values="0 0 0 0 0 0 0 0 0 0 0 0 0 0 0 0 0 0 0.05 0"/>
<feBlend mode="normal" in2="BackgroundImageFix" result="effect1_dropShadow"/>
<feColorMatrix in="SourceAlpha" type="matrix" values="0 0 0 0 0 0 0 0 0 0 0 0 0 0 0 0 0 0 127 0"/>
<feOffset dy="8"/>
<feGaussianBlur stdDeviation="7.5"/>
<feColorMatrix type="matrix" values="0 0 0 0 0 0 0 0 0 0 0 0 0 0 0 0 0 0 0.1 0"/>
<feBlend mode="normal" in2="effect1_dropShadow" result="effect2_dropShadow"/>
<feBlend mode="normal" in="SourceGraphic" in2="effect2_dropShadow" result="shape"/>
</filter>
</defs>
</svg>
